# xmcd
#
# Track frame offsets: 
#        150
#        19665
#        35317
#        54772
#        77885
#        91705
#        108397
#        121922
#        137392
#        159072
#        176800
#        196722
#        218912
#
# Disc length: 3310 seconds
#
# Revision: 1
# Processed by: cddbd v1.5.2PL0 Copyright (c) Steve Scherf et al.
# Submitted via: ExactAudioCopy v0.99pb4
#
DISCID=930cec0d
DTITLE=Various Artist - Dutch Swing Collage
DYEAR=1994
DGENRE=Jazz
TTITLE0=Pim Jacobs Swing Combo - Seven Come Eleven
TTITLE1=Rita Reys and Trio Pim Jacobs - Isn't It Romantic
TTITLE2=Pim Jacobs Swing Combo - Slipped Disc
TTITLE3=Louis Van Dijk Trio - Bluesette
TTITLE4=De Millers - Squatti Roo
TTITLE5=Ann Burton and Louis Van Dijk Trio - But Not For Me
TTITLE6=De Millers - I've Found A New Baby
TTITLE7=Pim Jacobs Swing Combo - Flying Home
TTITLE8=Pim Jacobs Trio - Misty
TTITLE9=Rita Reys and Trio Pim Jacobs - The Touch Of Your Lips
TTITLE10=Pim Jacobs Swing Combo - Stompin' At The Savoy
TTITLE11=Pim Jacobs Trio /Laura
TTITLE12=Pim Jacobs Swing Combo - In A Mellow Tone
EXTD=YEAR: 1994
EXTT0=
EXTT1=
EXTT2=
EXTT3=
EXTT4=
EXTT5=
EXTT6=
EXTT7=
EXTT8=
EXTT9=
EXTT10=
EXTT11=
EXTT12=
PLAYORDER=
